<?xml version="1.0" standalone="no"?>
<!DOCTYPE svg PUBLIC "-//W3C//DTD SVG 20010904//EN"
 "http://www.w3.org/TR/2001/REC-SVG-20010904/DTD/svg10.dtd">
<svg version="1.0" xmlns="http://www.w3.org/2000/svg"
 width="554.000000pt" height="554.000000pt" viewBox="0 0 554.000000 554.000000"
 preserveAspectRatio="xMidYMid meet">
<g transform="translate(0.000000,554.000000) scale(0.100000,-0.100000)"
fill="rgb(190, 52, 85)" stroke="none">
<path d="M3065 4971 c-307 -55 -594 -212 -859 -470 -223 -218 -364 -417 -532
-754 -394 -785 -479 -1710 -222 -2412 194 -529 551 -855 1010 -920 293 -42
504 9 766 185 215 144 392 356 484 583 55 135 25 146 -58 19 -80 -120 -273
-312 -383 -380 -185 -113 -308 -147 -511 -139 -152 6 -218 21 -336 77 -252
117 -425 315 -559 640 -124 299 -184 736 -156 1132 64 920 414 1740 891 2089
235 172 431 239 700 239 110 0 141 -4 209 -25 236 -75 361 -272 361 -571 0
-239 -76 -466 -233 -699 -79 -117 -265 -303 -382 -382 -169 -114 -382 -204
-552 -234 -71 -12 -73 -13 -73 -42 l0 -29 88 6 c254 20 514 94 744 213 399
205 676 527 744 862 13 67 15 116 11 230 -5 150 -18 216 -61 323 -98 242 -314
407 -606 462 -113 22 -353 20 -485 -3z"/>
</g>
</svg>
